# xmcd
#
# Track frame offsets:
#  182
#  62997
#  83352
#  96790
#  113460
#  131027
#  147645
#  166900
#  178475
#  196170
#  214085
#  237130
#  255570
#
# Disc length: 3592 seconds
#
# Revision: 0
# Processed by: cddbd v1.5.1PL0 Copyright (c) Steve Scherf et al.
# Submitted via: Collectorz.com Music Collector 6.9
#
DISCID=b40e060d
DTITLE=Emmylou Harris - Full Circle - An Interview With Emmylou Harris
DYEAR=1991
DGENRE=Country
TTITLE0=Interview with Song Excerpts
TTITLE1=On Gram Parsons/"LOVE HURTS"
TTITLE2=On Desert Rose Band/"THE PRICE I PAY"
TTITLE3=On Ricky Skaggs/"GREEN PASTURES"
TTITLE4=On "WE BELIEVE IN HAPPY ENDINGS"
TTITLE5=On Don Williams/"IF I NEEDED YOU"
TTITLE6=On Brand New Dance album/"BRAND NEW DANCE"
TTITLE7=On Ricky Nelson/"NEVER BE ANYONE ELSE BUT YOU"
TTITLE8=On "ROLLIN' AND RAMBLIN' (The Death of Hank Williams)"
TTITLE9=On "RED RED ROSE"
TTITLE10=On Bruce Springsteen/"TOUGHER THAN THE REST"
TTITLE11=On Her Albums/"SWEET DREAMS OF YOU"
TTITLE12=On Songs/"WHEELS OF LOVE"
EXTD=
EXTT0=
EXTT1=
EXTT2=
EXTT3=
EXTT4=
EXTT5=
EXTT6=
EXTT7=
EXTT8=
EXTT9=
EXTT10=
EXTT11=
EXTT12=
PLAYORDER=
